<svg viewBox="0 0 100 100" xmlns="http://www.w3.org/2000/svg"><path d="m82.7 87.7c-1.3 0-2.6-.5-3.5-1.5l-17.7-17.7c-2-2-2-5.1 0-7.1s5.1-2 7.1 0l17.7 17.7c2 2 2 5.1 0 7.1-1.1 1-2.3 1.5-3.6 1.5z"/><circle cx="43.8" cy="43.8" fill="#e0e0e0" r="27.5" transform="matrix(.70709444 -.70711912 .70711912 .70709444 -18.142019 43.798374)"/><path d="m43.8 75.3c-8.1 0-16.1-3.1-22.3-9.2-12.3-12.3-12.3-32.3 0-44.5 12.3-12.3 32.3-12.3 44.5 0 12.3 12.3 12.3 32.3 0 44.5-6.1 6.1-14.1 9.2-22.2 9.2zm0-55c-6 0-12 2.3-16.6 6.9-9.2 9.2-9.2 24.1 0 33.2 9.2 9.2 24.1 9.2 33.2 0 4.4-4.4 6.9-10.3 6.9-16.6s-2.4-12.2-6.9-16.6c-4.6-4.6-10.6-6.9-16.6-6.9z" fill="#666766"/><ellipse cx="43.4" cy="54.9" rx="3.9" ry="3.6"/><path d="m53.3 36.6c-.8-4.1-4.9-7.3-9.5-7.4-2.7-.1-5.3.8-7.3 2.5-.7.6-1.3 1.3-1.8 2.1-.1.1-.1.2-.2.3-.2.4-.4.9-.4 1.4 0 1.7 1.3 3 3 3 1.5 0 2.7-1.1 2.9-2.5.1-.2.3-.4.5-.5 1-.8 2.3-1.2 3.6-1 1.4.2 2.7 1.2 3.2 2.4.8 2-.3 4.1-2.4 4.8-2.7 1-4.5 3.4-4.5 6.1v1.9h5.9v-1.9c0-.5.3-1 .8-1.2 4.4-1.5 7.1-5.7 6.2-10z"/></svg>